<svg xmlns="http://www.w3.org/2000/svg" enable-background="new 0 0 289.52 59" viewBox="0 0 289.52 59" width="346" height="95"><path d="M10.7 45.53c2.7-.21 3.76-.54 3.76-3.37V14.11c0-2.82-1.06-2.98-3.76-3.2V9.05h20.69l1.57 7.43h-2.24c-1.08-5.28-2.73-5.19-7.38-5.19h-2.14c-1.26 0-1.56.32-1.56 1.92v12.47c0 0 .27.38 1.29.38 2.77.05 3.35-.79 3.92-4.48h1.52v10.71h-1.52c-.57-3.74-1.11-4.42-4.01-4.42-.76 0-1.2.32-1.2.32v13.93c0 2.88.3 3.21 3.7 3.42v1.7H10.7V45.53zM54.28 26.29c.4.08.69-.39.69-.39 1.79-2.04 2.7-2.6 3.5-2.6 1.62 0 2.29 1.04 2.29 2.68 0 .86-2.42 2.03-2.85 1.73-.92-.68-1.44-.8-2.06-.8 0 0-2 1.76-2 4.66 0 2.9 0 11.48 0 11.48 0 2.16.31 2.31 2.15 2.5v1.68h-8.84v-1.68c1.71-.15 1.98-.34 1.98-2.5V28.51c0-3.18-1.33-3.1-1.95-3.23v-1.11l6.38-.13C53.59 24.04 53.91 25.83 54.28 26.29zM162.43 26.29c.41.08.7-.39.7-.39 1.78-2.04 2.7-2.6 3.51-2.6 1.61 0 2.28 1.04 2.28 2.68 0 .86-2.42 2.03-2.85 1.73-.92-.68-1.44-.8-2.05-.8 0 0-2 1.76-2 4.66 0 2.9 0 11.48 0 11.48 0 2.16.31 2.31 2.15 2.5v1.68h-8.84v-1.68c1.71-.15 1.97-.34 1.97-2.5V28.51c0-3.18-1.33-3.1-1.95-3.23v-1.11l6.39-.13C161.74 24.04 162.06 25.83 162.43 26.29zM116.66 26.29c.4.08.69-.39.69-.39 1.79-2.04 2.7-2.6 3.51-2.6 1.61 0 2.28 1.04 2.28 2.68 0 .86-2.42 2.03-2.84 1.73-.92-.68-1.44-.8-2.05-.8 0 0-2 1.76-2 4.66 0 2.9 0 11.48 0 11.48 0 2.16.31 2.31 2.15 2.5v1.68h-8.84v-1.68c1.71-.15 1.97-.34 1.97-2.5V28.51c0-3.18-1.33-3.1-1.95-3.23v-1.11l6.39-.13C115.97 24.04 116.28 25.83 116.66 26.29zM105.54 40.27c-.59 1.75-1.93 4.68-4.19 4.68-3.26-.01-5.12-2.54-5.12-6.97 0 0 .01-.83.01-.99.12 0 11.63-.04 11.63-.04v-.07c-.09-10.18-2.16-13.99-7.65-14.06-5.17-.07-9.14 5.29-9.23 12.45-.05 4.24 1.14 7.82 3.36 10.07 1.5 1.51 3.36 2.31 5.38 2.31 4.8 0 6.91-4.6 7.74-7.35l.02-.08h-1.93L105.54 40.27zM102.79 33.62c0 .77-.12 1.21-.35 1.44-.17.17-.42.24-.8.24 0 0-5.23.02-5.36.02.07-5.37.78-8.64 2.16-9.98.5-.49 1.09-.73 1.77-.72C101.99 24.64 102.86 27.67 102.79 33.62zM246.71 26.29c.41.08.69-.39.69-.39 1.79-2.04 2.71-2.6 3.51-2.6 1.61 0 2.29 1.04 2.29 2.68 0 .86-2.42 2.03-2.85 1.73-.92-.68-1.44-.8-2.05-.8 0 0-2 1.76-2 4.66 0 2.9 0 11.48 0 11.48 0 2.16.31 2.31 2.15 2.5v1.68h-8.84v-1.68c1.71-.15 1.98-.34 1.98-2.5V28.51c0-3.18-1.33-3.1-1.94-3.23v-1.11l6.38-.13C246.02 24.04 246.34 25.83 246.71 26.29zM235.72 40.27c-.6 1.75-1.93 4.68-4.2 4.68-3.25-.01-5.12-2.54-5.12-6.97 0 0 .02-.83.02-.99.12 0 11.63-.04 11.63-.04v-.07c-.08-10.18-2.16-13.99-7.65-14.06-5.18-.07-9.14 5.29-9.23 12.45-.06 4.24 1.14 7.82 3.36 10.07 1.5 1.51 3.36 2.31 5.38 2.31 4.81 0 6.9-4.6 7.73-7.35l.03-.08h-1.93L235.72 40.27zM232.97 33.62c-.01.77-.12 1.21-.35 1.44-.17.17-.42.24-.81.24 0 0-5.23.02-5.36.02.07-5.37.78-8.64 2.16-9.98.5-.49 1.09-.73 1.77-.72C232.17 24.64 233.04 27.67 232.97 33.62zM129.75 45.82l1.04-.16c2.05-.55 2.05-.32 2.05-6.48V16.94c0-6.05 0-5.88-2.05-6.37l-1.04-.16.26-1.1 12.83.04c-.89 0 8.87-1.04 8.87 7.02 0 5.82-3.32 7.97-5.63 8.85v.11c4.53.82 7.89 4.01 7.79 10.54-.13 8.27-5.7 11.35-12.8 11.37h-11.32V45.82zM137.76 24.83h1.61c3.31 0 6.27-1.14 6.27-7.02 0-4.19-2.3-6.75-5.66-6.75-.74 0-1.48.11-2.22.38V24.83zM137.48 44.56c1.13.54 3.05.32 4.23.32 4.53 0 5.78-5.81 5.78-8.45 0-6.72-2.55-9.53-7.82-9.53h-1.87L137.48 44.56zM187.03 34.62c0 8.81-4.42 13.08-8.84 13.08-5.91 0-8.87-6.16-8.87-11.95 0-8.53 4.76-13.13 9.06-13.13C183.72 22.62 187.03 28.35 187.03 34.62zM178.39 45.42c1.38 0 3.12-1.35 3.12-9.18 0-7.19-1.46-11.35-3.91-11.35-1.58 0-3.19 2.86-3.19 8.7C174.41 40.4 175.94 45.42 178.39 45.42zM195.77 24.57v14.81c0 2.22 0 4.79 1.51 4.79 1.05 0 1.89-1.14 2.49-2.21l.43 1.13c-.65 2.83-1.82 4.5-4.3 4.5-4.12 0-5.01-3.25-5.01-8.2V24.57h-2.27v-1.25c3.07-1.2 5.13-4.16 5.97-8.32h1.18v7.74h3.44v1.83H195.77zM261.66 47.57c-1.68-.17-4.33-.97-4.78-1.41l-1.05 1.05-1.11.01-.38-7.54h1.77c0 1.76.07 1.46.23 2.1.54 2.02 3.36 4.07 5.58 4.07 3.78 0 4.89-3.54 1.62-6.32-.41-.32-3.19-2.39-4.82-3.67-4.71-3.73-4.26-13.33 3.25-13.33 1.35 0 3.34.28 5.13 1.04l.41-.53 1.69.29-.27 7.43-1.41-.1c-.21-.98.11-1.38-.44-3.04-.77-2.34-2.34-3.34-3.98-3.34-2.36 0-2.98 1.73-2.98 2.87 0 3.24 4.3 6.04 3.77 5.66-1.75-1.27 2.41 2.01 3.55 3.1C272.79 41.03 268.64 48.28 261.66 47.57zM43.36 43.06v-.76c-.02-.24-.02-.49-.02-.78V30.67c0-4-.13-6.53-5.2-7.01-.34-.03-.7-.06-1.07-.06-4.79 0-6.27 2-6.27 4.28 0 1.02.65 2.6 2.49 2.6 1.3 0 2.33-1.3 2.33-2.1 0-1.67-1.01-1.28-1.25-2.39.17-.8.66-1.03 1.33-1.03 2.45 0 3.49 1.13 3.49 5v1.79c-3.71 1.44-11.5 2.64-11.5 9.53 0 4.15 3.16 5.95 6.12 5.95.4 0 2.64-.03 4.49-2.16.47 1.27 1.22 1.8 1.87 2.01.86.29 3.09.24 4.73.15v-1.68C43.18 45.18 43.36 44.75 43.36 43.06zM39.1 40.52c0 3.09-2.26 4.09-3.76 4.09-1.08 0-3.52-.71-2.91-4.52.56-3.47 2.97-6.1 6.67-6.28V40.52zM89.12 45.5c-1.35-.17-1.62-.66-1.62-2.93V30.99c0-2.48-.11-3.62-.46-4.71-.64-2.03-2.23-3.19-4.37-3.19-2.03 0-3.75 1.07-5.13 3.09-.83-2.16-2.12-3.14-4.27-3.14-2.04 0-3.46.89-4.76 2.86-.05-.9-.16-2.61-.16-2.61l-5.75.46-.04 1.37h.29c.35 0 .49.11.57.2.36.41.35 1.61.32 3.42l-.01.99v12.84c0 2.29-.26 2.81-1.47 2.93l-.25.03v1.7h8.33v-1.7l-.25-.03c-1.34-.17-1.44-.66-1.44-2.93 0 0 .02-10.74.02-10.74.02-1.64.14-3.2.44-3.92.38-.88 1.12-1.44 1.93-1.44.72 0 1.32.4 1.64 1.1.37.74.47 2.18.47 4.19v10.74c0 2.29-.08 2.9-1.28 3.02l-.26.03v1.73h8.21v-1.72l-.25-.04c-1.34-.17-1.48-.75-1.48-3.02 0-.01.02-10.67.02-10.67.02-1.62.13-3.15.44-3.93.39-.85 1.14-1.38 1.94-1.38.71 0 1.28.39 1.61 1.1.37.7.47 2.12.47 4.14l.01 10.81c0 2.29-.11 2.81-1.32 2.93L81 45.53v1.7h8.36v-1.7L89.12 45.5zM218.23 42.97l-.03-12.18c0-3.14-.22-4.46-.92-5.62-.81-1.32-2.21-2.03-3.94-2.03-2.24 0-4.01 1.01-5.62 3.34V9.05l-6.72.35v1.12c.61.13 1.93.05 1.93 3.25v29.2c0 2.2-.77 2.54-1.36 2.54v1.71h7.46v-1.71c-.43 0-1.32-.34-1.32-2.54V32.3c0-3.84.99-6.28 3.05-6.28.92 0 1.73 1.07 2.13 1.98.41.91.51 1.92.51 4.61l.04 10.36c0 2.2-.35 2.54-1.03 2.54v1.71h7.36v-1.71C218.51 45.51 218.23 45.17 218.23 42.97z" fill="#ffffff" class="color000 svgShape"/><g fill="#ffffff" class="color000 svgShape"><path d="M282.43,14.25c0,1.43-0.51,2.65-1.52,3.67c-1.02,1.02-2.23,1.53-3.65,1.53c-1.43,0-2.66-0.51-3.68-1.53   c-1.02-1.02-1.53-2.25-1.53-3.68c0-1.43,0.51-2.66,1.53-3.68c1.02-1.02,2.25-1.53,3.7-1.53c1.42,0,2.64,0.51,3.65,1.53    C281.93,11.58,282.43,12.81,282.43,14.25z M281.5,14.24c0-1.2-0.42-2.23-1.25-3.09c-0.83-0.86-1.83-1.29-2.99-1.29    c-1.19,0-2.2,0.43-3.03,1.29c-0.84,0.86-1.25,1.89-1.25,3.09c0,1.21,0.42,2.24,1.26,3.1c0.84,0.86,1.84,1.28,3.02,1.28    c1.16,0,2.16-0.43,3-1.28C281.08,16.49,281.5,15.45,281.5,14.24z M279.85,17.25h-1.35l-0.98-2.43h-1.44v2.43h-1.28v-6h2.78    c0.76,0,1.33,0.17,1.7,0.5c0.38,0.33,0.56,0.76,0.56,1.28c0,0.75-0.37,1.27-1.11,1.58L279.85,17.25z M276.09,13.87h1.32    c0.75,0,1.12-0.29,1.12-0.86c0-0.55-0.34-0.82-1.03-0.82h-1.41V13.87z" fill="#ffffff" class="color000 svgShape"/></g></svg>